<?xml version="1.0" encoding="UTF-8" standalone="no"?>
<!DOCTYPE svg PUBLIC "-//W3C//DTD SVG 1.1//EN" "http://www.w3.org/Graphics/SVG/1.1/DTD/svg11.dtd">
<svg width="100%" height="100%" viewBox="0 0 340 65" version="1.1" xmlns="http://www.w3.org/2000/svg" xmlns:xlink="http://www.w3.org/1999/xlink" xml:space="preserve" xmlns:serif="http://www.serif.com/" style="fill-rule:evenodd;clip-rule:evenodd;stroke-linejoin:round;stroke-miterlimit:2;">
    <g transform="matrix(1,0,0,1,-22,-290.8)">
        <g transform="matrix(1,0,0,1,153,46)">
            <path d="M178.8,299.6C184.1,301.3 189.2,303.3 194.2,305.3L193.3,307.8L193.2,308L181.3,308L179.5,302.2L178.8,299.6ZM147.2,293.6L152.3,308L164.1,308L166.8,298.8L167.6,296.2C160.7,294.3 153.6,292.6 146.3,291.3L147.2,293.6ZM129,288.7C128.2,294.5 123.4,298.9 117.5,298.9C111,298.9 105.8,293.6 105.7,287C102.6,286.9 99.6,286.8 96.5,286.8L96,286.8C96,298.9 105.7,308.6 117.6,308.6C128,308.6 136.6,301 138.4,290.9C138.5,290.6 138.5,290.2 138.5,289.9C135.4,289.5 132.2,289.1 129,288.7M72.5,287.9L72.5,307.6L82.5,307.6L82.5,287.3C79.2,287.4 75.9,287.6 72.5,287.9M30,294.8L30,307.5L40,307.5L40,292.5C36.6,293.2 33.3,294 30,294.8M56.5,289.7L56.5,307.5L66.5,307.5L66.5,288.4C63.2,288.8 59.9,289.3 56.5,289.7M16.5,300.3C15.1,300.3 14.1,300 13.5,299.3C10.2,300.3 6.9,301.6 3.7,302.8C5.5,307.3 9.8,309.1 15.5,309.1C19.4,309.1 23,308 26.7,306.8L24,298.7C21.5,299.5 19.1,300.3 16.5,300.3M-61.3,273.2C-66.6,273.2 -69.7,277.5 -70,282.5L-52.9,282.5C-52.9,277.3 -55.7,273.2 -61.3,273.2M-80.7,286.8C-80.7,274.7 -74.1,265 -61.4,265C-49.4,265 -42.5,273.3 -42.5,284.9C-42.5,286.7 -42.8,288.6 -43.1,290.4L-70,290.4C-69.3,296.8 -65,299.8 -58.8,299.8C-55.4,299.8 -51.2,299 -48.2,297.6L-45,305.3C-49.5,307.2 -54.4,308.4 -59.3,308.4C-72.2,308.4 -80.7,299.7 -80.7,286.8M137.4,266L144.3,285.5C148.3,286.1 152.3,286.7 156.2,287.5L149,266L137.4,266ZM197.3,266L188,294.9L177.5,266L168,266L160,288.3C163.2,289 166.3,289.7 169.4,290.4L172.7,279.2L176.7,292.3C183.5,294.2 190.1,296.4 196.6,298.9L208.2,266L197.3,266ZM103.2,282.6L106.5,282.6C108.2,278.2 112.6,274.9 117.4,274.9C122.6,274.9 127.1,278.6 128.6,283.7C132,284 135.3,284.3 138.7,284.8C137.6,273.7 128.5,265.2 117.4,265.2C107,265.2 98.4,272.7 96.5,282.7C98.7,282.6 101,282.6 103.2,282.6M71.8,269.6C71.8,269.6 72.5,273.8 72.5,275.8L72.5,284.1C75.8,283.8 79.2,283.5 82.5,283.3L82.5,275.6L82.4,274.8C84.8,274 87.4,273.7 89.9,273.7C91.7,273.7 94.1,274.1 95.4,274.5L98.4,265.9C96.1,265.3 93.3,265 90.7,265C84.2,265 77.8,267.1 71.8,269.6M30,248.8L30,291.5C33.3,290.7 36.6,289.9 40,289.1L40,276.6C42.8,274.9 46.3,273.5 49.6,273.5C53.8,273.5 56.6,276.5 56.6,281.1L56.6,286C59.9,285.5 63.2,285 66.6,284.6L66.6,279.6C66.6,270.4 61.7,264.9 52.4,264.9C48.2,264.9 43.9,266 40.1,267.6L40.1,244.8L30,248.8ZM12.7,252.6L2.7,256.5L2.7,266.1L-2,266.3L-2,274.2L2.7,274.5L2.7,297.5C2.7,298.4 2.8,299.2 2.9,300C6.1,298.8 9.4,297.6 12.7,296.6L12.7,274.6L24.4,274.6L24.4,265.9L12.7,265.9L12.7,252.6ZM-30.1,295C-30.1,299.3 -25.9,300.1 -22.4,300.1C-20,300.1 -17.6,299.8 -15.3,299.1L-15.3,288.8C-18.7,292 -30.1,290.4 -30.1,295M-37.2,268.6C-32.3,266.4 -26.2,265 -20.8,265C-11.9,265 -5.2,268.9 -5.2,278.6L-5.2,303.2C-8.9,304.7 -12.6,306.4 -16.2,308C-17.9,308.3 -19.9,308.4 -22.3,308.4C-30.3,308.4 -40.9,305.5 -40.9,295.7C-40.9,278.9 -15.1,284.6 -15.1,277.4C-15.1,273.9 -19.6,273.6 -22.1,273.6C-25.8,273.6 -30.2,274.6 -33.7,276.1L-37.2,268.6M-131,252.9L-131,307.6L-120.6,307.6L-120.6,282.3L-95.5,282.3L-95.5,307.6L-85.1,307.6L-85.1,248.9L-95.5,253L-95.5,273.7L-120.6,273.7L-120.6,248.9L-131,252.9Z" style="fill-rule:nonzero;"/>
        </g>
    </g>
</svg>
